<?xml version="1.0" standalone="no"?>
<!DOCTYPE svg PUBLIC "-//W3C//DTD SVG 20010904//EN"
 "http://www.w3.org/TR/2001/REC-SVG-20010904/DTD/svg10.dtd">
<svg version="1.0" xmlns="http://www.w3.org/2000/svg"
 width="1024.000000pt" height="1024.000000pt" viewBox="0 0 1024.000000 1024.000000"
 preserveAspectRatio="xMidYMid meet">
<metadata>
Created by potrace 1.14, written by Peter Selinger 2001-2017
</metadata>
<g transform="translate(0.000000,1024.000000) scale(0.100000,-0.100000)"
fill="#000000" stroke="none">
<path d="M4995 8910 c-16 -4 -82 -37 -146 -73 -64 -37 -121 -67 -128 -67 -6 0
-11 -4 -11 -8 0 -5 -19 -18 -42 -31 -24 -12 -50 -26 -58 -31 -8 -5 -44 -26
-80 -47 l-65 -37 -654 -3 -655 -2 -53 -27 c-41 -19 -62 -38 -87 -78 -36 -56
-168 -283 -219 -376 -16 -30 -35 -62 -41 -70 -6 -8 -16 -24 -22 -35 -31 -59
-50 -91 -54 -95 -3 -3 -19 -31 -35 -62 -15 -32 -32 -58 -37 -58 -4 0 -8 -5 -8
-12 0 -6 -22 -49 -50 -95 -27 -46 -50 -88 -50 -93 0 -6 -4 -10 -9 -10 -5 0
-12 -11 -15 -24 -3 -14 -12 -31 -19 -38 -6 -7 -23 -35 -37 -62 -22 -42 -38
-55 -133 -112 -60 -35 -110 -64 -112 -64 -1 0 -54 -30 -116 -67 -63 -36 -135
-78 -161 -92 -67 -38 -103 -71 -116 -110 -8 -23 -12 -138 -12 -359 l0 -324
-34 -57 c-18 -31 -45 -76 -58 -101 -27 -50 -243 -423 -277 -480 -11 -19 -24
-42 -28 -50 -4 -8 -33 -59 -65 -113 -32 -53 -58 -102 -58 -107 0 -6 -4 -10 -9
-10 -5 0 -11 -8 -14 -17 -3 -10 -20 -43 -38 -73 -41 -71 -50 -158 -24 -216 10
-21 69 -127 132 -235 62 -108 113 -201 113 -207 0 -6 3 -12 7 -14 5 -1 19 -23
32 -48 14 -25 31 -51 38 -58 7 -7 13 -22 13 -33 0 -10 4 -19 9 -19 5 0 13 -10
17 -22 3 -12 13 -28 20 -36 8 -7 12 -17 9 -22 -3 -5 -1 -10 3 -12 11 -4 132
-212 132 -226 0 -7 4 -12 9 -12 5 0 11 -8 14 -17 4 -10 17 -37 31 -60 l25 -42
1 -398 1 -397 35 -34 c19 -18 32 -38 28 -43 -3 -5 -10 -6 -16 -3 -7 4 -8 2 -4
-5 6 -9 11 -9 21 -1 10 8 21 7 44 -5 17 -8 31 -20 31 -26 0 -6 5 -7 10 -4 6 4
17 1 25 -5 11 -9 12 -17 4 -34 -9 -18 -7 -17 11 4 14 16 20 19 16 8 -4 -13 -1
-15 11 -11 11 4 14 3 9 -6 -5 -8 -3 -11 5 -9 17 3 139 -61 139 -73 0 -5 9 -9
21 -9 11 0 17 -4 14 -10 -3 -5 1 -10 9 -10 26 0 30 -2 57 -24 15 -13 40 -28
56 -35 20 -8 35 -24 42 -44 8 -25 10 -26 6 -5 -5 24 -3 25 19 15 13 -7 22 -15
20 -19 -3 -5 4 -8 15 -8 14 0 26 -11 36 -32 8 -18 12 -23 9 -10 -10 42 16 22
55 -40 12 -21 20 -38 16 -38 -3 0 3 -10 15 -22 11 -12 20 -28 20 -35 0 -7 4
-13 8 -13 4 0 20 -24 35 -52 15 -29 41 -75 57 -103 17 -27 38 -67 47 -87 10
-21 21 -38 25 -38 5 0 8 -6 8 -14 0 -8 3 -16 8 -18 4 -1 18 -23 31 -48 51 -98
66 -125 71 -130 7 -7 36 -59 96 -170 11 -19 21 -37 25 -40 3 -3 16 -23 29 -45
21 -35 45 -62 87 -95 26 -21 113 -29 346 -31 81 -1 150 -6 153 -11 3 -4 14 -3
25 2 13 8 19 7 19 0 0 -6 5 -8 11 -5 18 12 78 11 71 0 -3 -5 1 -4 10 3 9 7 18
9 21 5 4 -7 61 -9 77 -3 3 1 10 1 15 0 9 -2 170 -7 363 -11 45 -1 82 -6 82
-10 0 -5 9 -9 21 -9 12 0 17 -4 14 -11 -4 -6 -1 -10 6 -9 20 3 59 -11 59 -21
0 -4 21 -17 46 -28 26 -12 43 -25 39 -31 -4 -6 -3 -9 2 -8 13 4 113 -44 113
-54 0 -5 -4 -7 -9 -3 -5 3 -13 0 -17 -7 -4 -7 -4 -10 1 -6 4 4 13 0 20 -9 9
-13 14 -13 20 -3 5 9 4 11 -3 6 -7 -4 -12 -3 -12 2 0 17 13 22 27 11 11 -10
11 -15 1 -28 -12 -14 -11 -14 5 -2 23 18 75 -1 59 -22 -5 -6 -9 -20 -9 -29 0
-15 3 -15 16 -5 12 10 14 9 7 -8 -5 -15 -4 -17 5 -8 13 13 3 37 -12 28 -5 -4
-9 -2 -9 4 0 14 21 25 29 15 3 -5 31 -22 61 -38 77 -40 153 -88 168 -106 8 -8
11 -10 8 -3 -5 8 0 8 19 0 14 -7 25 -16 25 -20 0 -5 9 -5 20 -2 12 4 20 2 20
-5 0 -6 -4 -9 -8 -6 -5 3 -9 -1 -9 -9 0 -12 4 -12 20 2 15 13 21 15 24 6 3 -7
10 -13 15 -13 6 0 8 3 4 7 -3 4 10 15 30 25 42 20 58 23 49 8 -4 -6 -11 -7
-17 -4 -6 4 -8 3 -5 -2 3 -5 20 -10 39 -11 23 -1 27 1 13 5 -27 9 -25 28 4 48
19 14 25 14 32 3 7 -11 9 -10 9 4 0 20 16 23 23 5 2 -7 3 -3 1 8 -3 14 3 24
14 28 9 3 31 14 47 25 28 18 73 30 50 13 -13 -8 -14 -62 -2 -55 5 3 6 14 4 25
-3 11 0 21 9 25 12 4 12 8 2 21 -10 12 -10 14 0 8 6 -4 12 -3 12 2 0 7 42 33
60 37 3 0 25 12 50 27 25 15 57 32 72 39 15 6 25 16 22 20 -3 5 -1 9 5 9 26 0
18 -22 -13 -37 -25 -12 -36 -23 -35 -37 1 -17 2 -18 6 -3 2 9 18 24 34 33 25
13 33 13 47 2 14 -12 14 -10 -1 11 -19 28 -8 51 25 51 10 0 17 4 14 9 -3 5 0
11 8 14 8 3 13 0 12 -8 -3 -19 -11 -26 -32 -29 -10 -2 -20 -9 -22 -17 -3 -11
-1 -11 7 1 6 8 11 11 11 7 0 -4 10 -3 22 4 18 10 20 9 14 -7 -4 -10 -3 -15 1
-10 4 4 9 17 9 29 1 12 2 28 3 35 0 6 10 12 22 12 11 0 17 5 14 10 -11 17 27
11 40 -7 13 -17 50 -28 39 -12 -3 5 -9 7 -14 4 -14 -9 -23 16 -11 28 8 8 11 8
11 0 0 -6 7 -13 14 -16 11 -4 13 -1 9 10 -4 11 -2 14 5 9 7 -4 70 -8 141 -9
71 -1 133 -5 137 -9 4 -4 13 -3 21 3 10 9 13 8 13 0 0 -7 5 -9 12 -4 17 9 47
10 76 1 13 -5 22 -3 22 3 0 6 5 7 11 3 6 -3 117 -8 247 -10 173 -3 238 -8 244
-17 5 -8 8 -9 8 0 0 8 24 11 75 10 57 0 74 -4 71 -14 -3 -7 -1 -15 5 -18 5 -4
9 -3 8 2 -1 4 -1 13 0 18 1 13 81 13 81 0 0 -5 5 -3 10 5 8 12 10 12 10 1 0
-11 3 -11 15 -1 12 10 15 10 15 -1 0 -12 2 -12 9 0 5 7 14 10 20 7 6 -4 11 -2
11 5 0 7 3 9 7 6 3 -4 17 0 30 9 20 13 27 13 41 3 14 -11 15 -11 5 1 -16 17
-17 30 -2 30 15 0 49 39 49 57 0 7 4 13 8 13 5 0 23 29 41 65 17 36 36 65 41
65 6 0 9 3 8 8 0 4 4 18 10 32 6 14 11 21 11 16 1 -8 52 84 85 152 6 12 16 20
23 18 7 -3 10 1 7 9 -6 13 70 153 91 167 6 5 6 8 0 8 -7 0 -7 3 0 8 6 4 21 28
34 54 13 26 28 45 34 41 6 -3 7 -1 3 5 -4 6 9 36 28 66 19 30 31 58 28 62 -4
4 1 4 11 1 11 -4 16 -3 11 4 -7 11 36 99 48 99 5 0 8 6 8 13 0 8 9 24 20 37
19 22 24 35 21 53 0 4 4 7 9 7 6 0 10 7 10 15 0 8 7 15 15 15 9 0 12 6 9 15
-3 8 0 17 8 20 8 3 15 11 15 18 0 22 32 63 61 78 15 8 30 18 34 24 5 6 8 6 8
-1 0 -13 -25 -36 -31 -29 -3 2 -5 -5 -5 -15 0 -19 2 -18 21 3 11 13 37 32 57
42 21 11 36 21 34 23 -2 2 -18 -4 -35 -13 -17 -8 -31 -11 -31 -6 0 8 47 32 67
34 4 0 19 11 33 24 14 13 30 21 36 19 6 -2 17 4 24 14 8 11 17 17 21 14 4 -2
14 2 22 11 13 13 16 13 27 0 7 -8 18 -15 24 -15 6 0 3 5 -6 11 -22 12 -23 29
-3 29 8 0 15 5 15 11 0 6 6 9 14 6 8 -3 17 0 20 8 2 7 21 19 40 26 20 7 36 17
36 21 0 4 9 8 20 8 11 0 19 3 19 7 -3 20 2 26 11 13 8 -12 10 -11 10 7 0 13 9
37 20 55 14 24 16 34 7 40 -7 5 -8 8 -1 8 7 0 9 17 7 46 -4 35 0 49 14 61 10
8 12 12 6 8 -23 -11 -31 4 -23 40 5 22 4 35 -2 35 -6 0 -5 6 2 15 10 12 10 15
-1 15 -12 0 -12 2 -1 9 18 11 18 12 4 38 -8 15 -9 24 -2 28 8 5 8 11 1 19 -14
16 -4 26 17 19 12 -4 11 -1 -3 10 -14 10 -20 25 -19 44 1 15 3 28 4 28 8 0 5
52 -4 57 -8 6 -8 8 0 8 7 0 10 13 8 33 -4 35 27 104 45 100 6 -2 8 3 5 11 -5
13 82 168 98 174 4 2 6 7 3 12 -3 5 2 15 10 24 9 8 17 19 18 23 1 4 5 7 9 6 4
-2 4 5 1 14 -5 12 -3 14 7 8 8 -5 11 -4 7 2 -7 10 70 155 85 161 5 2 8 12 8
23 0 10 4 19 9 19 5 0 14 14 21 30 7 17 20 30 29 31 9 0 11 3 4 5 -7 4 -1 23
20 59 17 30 35 51 40 48 6 -3 7 -1 3 5 -4 6 5 29 19 51 14 23 25 45 25 50 0 5
3 11 8 13 4 2 16 20 26 41 12 23 25 36 33 33 7 -3 13 -1 13 3 0 5 -5 11 -11
13 -6 2 -2 13 10 27 11 13 18 28 15 32 -3 5 -1 9 5 9 5 0 13 9 16 20 4 11 11
17 17 14 6 -4 8 -2 4 4 -3 6 4 30 16 54 30 56 32 157 4 208 -10 19 -24 45 -30
57 -6 13 -14 23 -18 23 -5 0 -8 4 -8 10 0 5 -15 33 -34 62 -69 110 -83 133
-82 139 1 3 -11 22 -27 42 -15 19 -27 39 -27 42 0 3 -11 21 -25 39 -14 18 -25
35 -25 39 0 3 -34 60 -75 127 -42 67 -72 126 -69 133 4 7 3 9 -1 4 -12 -10
-68 81 -59 95 4 6 3 8 -3 5 -5 -4 -16 6 -24 21 -8 15 -16 29 -19 32 -20 20
-70 115 -66 126 3 8 0 11 -10 7 -13 -5 -18 7 -15 36 2 7 -2 11 -6 8 -5 -3 -9
16 -9 44 -1 29 4 49 10 49 6 0 4 5 -4 11 -11 8 -12 12 -2 16 6 2 12 9 12 14 0
6 -4 7 -10 4 -5 -3 -10 -2 -10 4 0 5 6 12 13 14 9 4 8 6 -2 6 -11 1 -11 4 0
18 8 9 10 14 4 11 -6 -4 -11 20 -11 64 -1 42 2 65 7 57 6 -10 8 -8 6 8 0 12
-5 19 -9 17 -4 -3 -8 0 -8 5 0 6 6 11 13 11 9 0 9 2 -1 8 -14 10 -13 61 2 81
8 11 8 13 -1 7 -8 -4 -13 -1 -13 9 0 10 5 13 12 9 7 -5 8 -3 2 7 -14 24 -16
92 -2 101 11 6 10 8 0 8 -9 0 -12 13 -11 43 5 89 -37 133 -226 234 -33 18 -59
37 -57 43 1 6 -2 9 -7 6 -10 -7 -101 40 -113 58 -4 6 -8 8 -8 4 0 -4 -37 14
-82 41 -46 27 -107 62 -136 78 -52 29 -98 85 -86 104 3 5 1 8 -5 7 -6 -2 -17
7 -24 19 -6 12 -31 53 -54 92 -24 38 -43 74 -43 79 0 6 -3 12 -7 14 -18 8 -64
88 -57 99 5 8 3 9 -6 4 -10 -6 -12 -3 -8 13 4 15 2 19 -8 15 -8 -3 -14 1 -14
11 0 9 -4 16 -10 16 -5 0 -10 5 -10 11 0 5 -21 42 -46 80 -25 39 -43 77 -40
85 3 7 1 13 -5 11 -6 -1 -16 7 -22 18 -7 11 -16 23 -21 26 -5 4 -5 13 -1 20 5
8 5 11 0 7 -4 -4 -44 52 -88 125 -83 138 -95 156 -171 275 -41 64 -95 113
-123 114 -4 0 -13 4 -20 9 -13 12 29 11 -731 9 l-603 -1 -130 76 c-72 41 -134
75 -140 75 -5 0 -9 5 -9 10 0 6 -7 10 -15 10 -8 0 -15 5 -15 11 0 5 -4 7 -10
4 -5 -3 -10 -1 -10 5 0 6 -4 8 -10 5 -5 -3 -10 -1 -10 4 0 6 -4 11 -9 11 -5 0
-40 18 -78 39 -74 43 -103 51 -148 41z"/>
<path d="M7224 8278 l-19 -23 23 19 c21 18 27 26 19 26 -2 0 -12 -10 -23 -22z"/>
<path d="M7300 8240 c-9 -6 -10 -10 -3 -10 6 0 15 5 18 10 8 12 4 12 -15 0z"/>
<path d="M8466 6722 c-3 -5 1 -9 9 -9 8 0 12 4 9 9 -3 4 -7 8 -9 8 -2 0 -6 -4
-9 -8z"/>
<path d="M8426 6658 c3 -4 9 -8 15 -8 5 0 9 4 9 8 0 5 -7 9 -15 9 -8 0 -12 -4
-9 -9z"/>
<path d="M8470 6606 c0 -2 7 -7 16 -10 8 -3 12 -2 9 4 -6 10 -25 14 -25 6z"/>
<path d="M8453 6255 c0 -8 4 -12 9 -9 5 3 6 10 3 15 -9 13 -12 11 -12 -6z"/>
<path d="M9054 4936 c1 -8 5 -18 8 -22 4 -3 5 1 4 10 -1 8 -5 18 -8 22 -4 3
-5 -1 -4 -10z"/>
<path d="M9115 4940 c3 -5 8 -10 11 -10 2 0 4 5 4 10 0 6 -5 10 -11 10 -5 0
-7 -4 -4 -10z"/>
<path d="M9036 4753 c-6 -14 -5 -15 5 -6 7 7 10 15 7 18 -3 3 -9 -2 -12 -12z"/>
<path d="M8935 4740 c-3 -5 -1 -10 4 -10 6 0 11 5 11 10 0 6 -2 10 -4 10 -3 0
-8 -4 -11 -10z"/>
<path d="M8850 4619 c0 -5 5 -7 10 -4 6 3 10 8 10 11 0 2 -4 4 -10 4 -5 0 -10
-5 -10 -11z"/>
<path d="M8853 4575 c0 -8 4 -12 9 -9 5 3 6 10 3 15 -9 13 -12 11 -12 -6z"/>
<path d="M8835 4510 c-4 -6 -11 -7 -17 -4 -7 4 -8 2 -4 -5 6 -9 11 -9 22 0 14
11 18 19 10 19 -3 0 -8 -5 -11 -10z"/>
<path d="M8610 4219 c0 -5 5 -7 10 -4 6 3 10 8 10 11 0 2 -4 4 -10 4 -5 0 -10
-5 -10 -11z"/>
<path d="M8600 4180 c-12 -7 -10 -9 7 -7 12 0 19 5 17 9 -6 10 -6 10 -24 -2z"/>
<path d="M8525 4080 c-3 -6 1 -7 9 -4 18 7 21 14 7 14 -6 0 -13 -4 -16 -10z"/>
<path d="M8475 3960 c3 -5 8 -10 11 -10 2 0 4 5 4 10 0 6 -5 10 -11 10 -5 0
-7 -4 -4 -10z"/>
<path d="M8450 3859 c0 -5 5 -7 10 -4 6 3 10 8 10 11 0 2 -4 4 -10 4 -5 0 -10
-5 -10 -11z"/>
<path d="M8519 3833 c-13 -16 -12 -17 4 -4 16 13 21 21 13 21 -2 0 -10 -8 -17
-17z"/>
<path d="M8450 3820 c0 -5 5 -10 11 -10 5 0 7 5 4 10 -3 6 -8 10 -11 10 -2 0
-4 -4 -4 -10z"/>
<path d="M8433 3769 c-2 -23 3 -25 10 -4 4 8 3 16 -1 19 -4 3 -9 -4 -9 -15z"/>
<path d="M8436 3673 c-6 -14 -5 -15 5 -6 7 7 10 15 7 18 -3 3 -9 -2 -12 -12z"/>
<path d="M8470 3561 c0 -6 4 -13 10 -16 6 -3 7 1 4 9 -7 18 -14 21 -14 7z"/>
<path d="M8340 3226 c0 -2 7 -6 15 -10 8 -3 15 -1 15 4 0 6 -7 10 -15 10 -8 0
-15 -2 -15 -4z"/>
<path d="M8303 3197 c-1 -11 -1 -18 0 -16 2 2 8 11 15 20 9 12 9 16 -1 16 -7
0 -14 -9 -14 -20z"/>
<path d="M8335 3199 c-4 -6 -5 -12 -2 -15 2 -3 7 2 10 11 7 17 1 20 -8 4z"/>
<path d="M8267 3189 c7 -7 15 -10 18 -7 3 3 -2 9 -12 12 -14 6 -15 5 -6 -5z"/>
<path d="M8215 3160 c-3 -5 -2 -10 4 -10 5 0 13 5 16 10 3 6 2 10 -4 10 -5 0
-13 -4 -16 -10z"/>
<path d="M8286 3158 c3 -5 10 -6 15 -3 13 9 11 12 -6 12 -8 0 -12 -4 -9 -9z"/>
<path d="M8235 3141 c-3 -5 0 -13 6 -17 7 -4 9 -3 5 4 -3 5 0 13 6 15 9 4 10
6 1 6 -6 1 -14 -3 -18 -8z"/>
<path d="M1873 3115 c0 -8 4 -12 9 -9 4 3 8 9 8 15 0 5 -4 9 -8 9 -5 0 -9 -7
-9 -15z"/>
<path d="M1900 3124 c0 -1 8 -8 17 -15 9 -8 14 -9 10 -2 -4 6 -1 13 5 16 7 3
3 4 -9 4 -13 -1 -23 -2 -23 -3z"/>
<path d="M8150 3124 c0 -1 8 -8 17 -15 9 -8 14 -9 10 -2 -4 6 -1 13 5 16 7 3
3 4 -9 4 -13 -1 -23 -2 -23 -3z"/>
<path d="M8130 3111 c0 -5 5 -13 10 -16 6 -3 10 -2 10 4 0 5 -4 13 -10 16 -5
3 -10 2 -10 -4z"/>
<path d="M1966 3082 c-3 -5 1 -9 9 -9 8 0 12 4 9 9 -3 4 -7 8 -9 8 -2 0 -6 -4
-9 -8z"/>
<path d="M8078 3083 c7 -3 16 -2 19 1 4 3 -2 6 -13 5 -11 0 -14 -3 -6 -6z"/>
<path d="M8115 3080 c3 -5 8 -10 11 -10 2 0 4 5 4 10 0 6 -5 10 -11 10 -5 0
-7 -4 -4 -10z"/>
<path d="M8174 3082 c4 -3 14 -7 22 -8 9 -1 13 0 10 4 -4 3 -14 7 -22 8 -9 1
-13 0 -10 -4z"/>
<path d="M2036 3057 c3 -10 9 -15 12 -12 3 3 0 11 -7 18 -10 9 -11 8 -5 -6z"/>
<path d="M8046 3054 c-5 -14 -4 -15 9 -4 14 11 19 7 16 -12 0 -5 4 -8 9 -8 14
0 13 13 -2 28 -16 16 -25 15 -32 -4z"/>
<path d="M2016 3047 c3 -10 9 -15 12 -12 3 3 0 11 -7 18 -10 9 -11 8 -5 -6z"/>
<path d="M2086 3037 c3 -10 9 -15 12 -12 3 3 0 11 -7 18 -10 9 -11 8 -5 -6z"/>
<path d="M8106 3038 c3 -5 10 -6 15 -3 13 9 11 12 -6 12 -8 0 -12 -4 -9 -9z"/>
<path d="M2110 3020 c0 -5 5 -10 11 -10 5 0 7 5 4 10 -3 6 -8 10 -11 10 -2 0
-4 -4 -4 -10z"/>
<path d="M8015 3019 c-3 -5 1 -6 10 -3 11 5 14 2 9 -10 -4 -10 -1 -16 7 -16 7
0 9 3 6 7 -4 3 -3 11 3 17 6 8 3 12 -10 13 -11 1 -22 -2 -25 -8z"/>
<path d="M7990 3000 c0 -5 5 -10 11 -10 5 0 7 5 4 10 -3 6 -8 10 -11 10 -2 0
-4 -4 -4 -10z"/>
<path d="M2090 2985 c0 -7 30 -13 34 -7 3 4 -4 9 -15 9 -10 1 -19 0 -19 -2z"/>
<path d="M2150 2983 c5 -2 8 -9 5 -13 -3 -5 -1 -11 4 -14 5 -4 8 2 7 11 -2 9
-8 18 -15 19 -6 1 -7 0 -1 -3z"/>
<path d="M7885 2970 c-10 -11 -14 -20 -9 -20 5 0 15 9 22 20 7 11 11 20 9 20
-2 0 -12 -9 -22 -20z"/>
<path d="M7958 2983 c7 -3 16 -2 19 1 4 3 -2 6 -13 5 -11 0 -14 -3 -6 -6z"/>
<path d="M2213 2967 c0 -8 6 -14 14 -14 9 0 10 4 2 14 -6 7 -12 13 -14 13 -1
0 -2 -6 -2 -13z"/>
<path d="M7946 2959 c4 -8 30 -6 38 2 3 3 -5 5 -19 5 -13 0 -22 -3 -19 -7z"/>
<path d="M7890 2930 c-6 -11 -8 -20 -6 -20 3 0 10 9 16 20 6 11 8 20 6 20 -3
0 -10 -9 -16 -20z"/>
<path d="M2250 2936 c0 -2 8 -10 18 -17 15 -13 16 -12 3 4 -13 16 -21 21 -21
13z"/>
<path d="M7913 2885 c0 -8 4 -12 9 -9 5 3 6 10 3 15 -9 13 -12 11 -12 -6z"/>
<path d="M2313 2875 c0 -8 4 -12 9 -9 5 3 6 10 3 15 -9 13 -12 11 -12 -6z"/>
<path d="M2266 2862 c-3 -5 1 -9 9 -9 8 0 12 4 9 9 -3 4 -7 8 -9 8 -2 0 -6 -4
-9 -8z"/>
<path d="M7819 2858 c-6 -20 -6 -39 0 -42 4 -3 7 6 7 20 0 20 -4 32 -7 22z"/>
<path d="M2457 2801 c-3 -13 -1 -18 9 -14 7 2 10 11 7 19 -7 19 -10 18 -16 -5z"/>
<path d="M7773 2709 c-2 -23 3 -25 10 -4 4 8 3 16 -1 19 -4 3 -9 -4 -9 -15z"/>
<path d="M7820 2720 c8 -5 20 -10 25 -10 6 0 3 5 -5 10 -8 5 -19 10 -25 10 -5
0 -3 -5 5 -10z"/>
<path d="M7733 2665 c0 -8 4 -12 9 -9 5 3 6 10 3 15 -9 13 -12 11 -12 -6z"/>
<path d="M7776 2638 c3 -5 10 -6 15 -3 13 9 11 12 -6 12 -8 0 -12 -4 -9 -9z"/>
<path d="M7630 2496 c0 -2 8 -10 18 -17 15 -13 16 -12 3 4 -13 16 -21 21 -21
13z"/>
<path d="M7675 2480 c-3 -5 -1 -10 4 -10 6 0 11 5 11 10 0 6 -2 10 -4 10 -3 0
-8 -4 -11 -10z"/>
<path d="M7535 2300 c3 -5 8 -10 11 -10 2 0 4 5 4 10 0 6 -5 10 -11 10 -5 0
-7 -4 -4 -10z"/>
<path d="M7470 2240 c0 -5 5 -10 11 -10 5 0 7 5 4 10 -3 6 -8 10 -11 10 -2 0
-4 -4 -4 -10z"/>
<path d="M7474 2202 c4 -3 14 -7 22 -8 9 -1 13 0 10 4 -4 3 -14 7 -22 8 -9 1
-13 0 -10 -4z"/>
<path d="M7459 2148 c-5 -18 -6 -38 -1 -34 7 8 12 36 6 36 -2 0 -4 -1 -5 -2z"/>
<path d="M7386 2102 c-3 -5 1 -9 9 -9 8 0 12 4 9 9 -3 4 -7 8 -9 8 -2 0 -6 -4
-9 -8z"/>
<path d="M7320 1940 c-12 -7 -10 -9 7 -7 12 0 19 5 17 9 -6 10 -6 10 -24 -2z"/>
<path d="M7295 1900 c3 -5 8 -10 11 -10 2 0 4 5 4 10 0 6 -5 10 -11 10 -5 0
-7 -4 -4 -10z"/>
<path d="M7255 1891 c-3 -5 -2 -12 3 -15 5 -3 9 1 9 9 0 17 -3 19 -12 6z"/>
<path d="M7255 1820 c3 -5 8 -10 11 -10 2 0 4 5 4 10 0 6 -5 10 -11 10 -5 0
-7 -4 -4 -10z"/>
<path d="M7213 1791 c0 -11 5 -18 9 -15 4 3 5 11 1 19 -7 21 -12 19 -10 -4z"/>
<path d="M3335 1781 c-3 -5 -2 -12 3 -15 5 -3 9 1 9 9 0 17 -3 19 -12 6z"/>
<path d="M3406 1782 c-3 -5 1 -9 9 -9 8 0 12 4 9 9 -3 4 -7 8 -9 8 -2 0 -6 -4
-9 -8z"/>
<path d="M3495 1781 c-3 -5 -2 -12 3 -15 5 -3 9 1 9 9 0 17 -3 19 -12 6z"/>
<path d="M3836 1767 c3 -10 9 -15 12 -12 3 3 0 11 -7 18 -10 9 -11 8 -5 -6z"/>
<path d="M3235 1761 c-3 -5 -2 -12 3 -15 5 -3 9 1 9 9 0 17 -3 19 -12 6z"/>
<path d="M3467 1759 c7 -7 15 -10 18 -7 3 3 -2 9 -12 12 -14 6 -15 5 -6 -5z"/>
<path d="M4293 1724 c0 -9 5 -10 16 -4 18 10 55 -6 46 -21 -4 -5 -1 -9 4 -9
16 0 13 15 -4 30 -20 17 -62 20 -62 4z"/>
<path d="M5740 1731 c0 -5 -9 -11 -20 -14 -11 -3 -20 -11 -20 -19 0 -10 2 -10
9 1 5 8 15 12 23 9 9 -4 14 1 15 13 1 10 0 19 -3 19 -2 0 -4 -4 -4 -9z"/>
<path d="M5936 1718 c3 -5 10 -6 15 -3 13 9 11 12 -6 12 -8 0 -12 -4 -9 -9z"/>
<path d="M6195 1709 c-4 -6 -5 -12 -2 -15 2 -3 7 2 10 11 7 17 1 20 -8 4z"/>
<path d="M6253 1695 c0 -8 4 -12 9 -9 5 3 6 10 3 15 -9 13 -12 11 -12 -6z"/>
<path d="M6375 1701 c-3 -5 -2 -12 3 -15 5 -3 9 1 9 9 0 17 -3 19 -12 6z"/>
<path d="M6533 1689 c-2 -23 3 -25 10 -4 4 8 3 16 -1 19 -4 3 -9 -4 -9 -15z"/>
<path d="M6695 1701 c-3 -5 -2 -12 3 -15 5 -3 9 1 9 9 0 17 -3 19 -12 6z"/>
<path d="M6806 1698 c3 -5 10 -6 15 -3 13 9 11 12 -6 12 -8 0 -12 -4 -9 -9z"/>
<path d="M6856 1702 c-3 -5 1 -9 9 -9 8 0 12 4 9 9 -3 4 -7 8 -9 8 -2 0 -6 -4
-9 -8z"/>
<path d="M7093 1689 c-2 -23 3 -25 10 -4 4 8 3 16 -1 19 -4 3 -9 -4 -9 -15z"/>
<path d="M4410 1680 c8 -5 20 -10 25 -10 6 0 3 5 -5 10 -8 5 -19 10 -25 10 -5
0 -3 -5 5 -10z"/>
<path d="M6316 1678 c3 -5 10 -6 15 -3 13 9 11 12 -6 12 -8 0 -12 -4 -9 -9z"/>
<path d="M5586 1603 c-6 -14 -5 -15 5 -6 7 7 10 15 7 18 -3 3 -9 -2 -12 -12z"/>
<path d="M4496 1598 c3 -5 10 -6 15 -3 13 9 11 12 -6 12 -8 0 -12 -4 -9 -9z"/>
<path d="M5490 1600 c-9 -6 -10 -10 -3 -10 6 0 15 5 18 10 8 12 4 12 -15 0z"/>
<path d="M5559 1608 c-5 -18 -6 -38 -1 -34 7 8 12 36 6 36 -2 0 -4 -1 -5 -2z"/>
<path d="M5690 1598 c0 -4 4 -8 9 -8 6 0 12 4 15 8 3 5 -1 9 -9 9 -8 0 -15 -4
-15 -9z"/>
<path d="M5510 1583 c0 -6 8 -17 18 -24 16 -13 16 -13 2 6 -8 11 -16 22 -17
24 -2 2 -3 0 -3 -6z"/>
<path d="M5455 1570 c-4 -6 1 -7 11 -3 12 4 15 3 10 -6 -5 -7 -2 -10 6 -9 7 2
12 -3 10 -10 -1 -8 2 -11 8 -7 13 8 13 11 -6 29 -18 18 -30 20 -39 6z"/>
<path d="M4627 1559 c7 -7 15 -10 18 -7 3 3 -2 9 -12 12 -14 6 -15 5 -6 -5z"/>
<path d="M5420 1560 c0 -5 5 -10 11 -10 5 0 8 -4 4 -9 -3 -5 0 -13 6 -17 8 -5
9 -3 4 6 -6 10 -4 12 8 7 24 -9 21 -2 -8 17 -14 9 -25 12 -25 6z"/>
<path d="M5386 1534 c-6 -15 -4 -15 11 -3 15 12 16 12 11 -2 -4 -9 -1 -16 7
-16 10 0 11 5 4 19 -12 22 -25 23 -33 2z"/>
<path d="M4706 1503 c-6 -14 -5 -15 5 -6 7 7 10 15 7 18 -3 3 -9 -2 -12 -12z"/>
<path d="M5374 1499 c-3 -6 -1 -16 5 -22 9 -9 11 -8 5 6 -5 13 -2 16 10 11 9
-3 16 -4 16 -1 0 11 -30 16 -36 6z"/>
<path d="M4736 1487 c3 -10 9 -15 12 -12 3 3 0 11 -7 18 -10 9 -11 8 -5 -6z"/>
<path d="M5303 1493 c-7 -2 -13 -8 -13 -13 0 -13 29 -20 36 -8 5 7 2 8 -6 3
-10 -6 -12 -4 -7 8 3 10 5 17 4 16 -1 0 -8 -3 -14 -6z"/>
<path d="M5260 1465 c-7 -9 -8 -15 -2 -15 5 0 12 7 16 15 3 8 4 15 2 15 -2 0
-9 -7 -16 -15z"/>
<path d="M4790 1460 c0 -5 5 -10 11 -10 5 0 7 5 4 10 -3 6 -8 10 -11 10 -2 0
-4 -4 -4 -10z"/>
<path d="M4826 1441 c4 -17 3 -21 -6 -16 -9 6 -11 4 -5 -4 5 -9 11 -9 17 -3 7
7 6 16 -1 29 -11 16 -11 15 -5 -6z"/>
<path d="M5276 1445 c-3 -8 -1 -15 4 -15 6 0 10 7 10 15 0 8 -2 15 -4 15 -2 0
-6 -7 -10 -15z"/>
<path d="M4857 1409 c4 -13 8 -18 11 -10 2 7 -1 18 -6 23 -8 8 -9 4 -5 -13z"/>
<path d="M5170 1408 c-12 -22 -12 -22 6 -6 10 10 15 20 12 24 -4 3 -12 -5 -18
-18z"/>
<path d="M5210 1402 c0 -5 7 -9 15 -9 8 0 12 4 9 9 -3 4 -9 8 -15 8 -5 0 -9
-4 -9 -8z"/>
<path d="M4941 1357 c-9 -15 -10 -18 -1 -10 7 6 20 9 29 6 9 -3 12 -1 6 4 -5
4 -12 11 -15 15 -3 4 -12 -3 -19 -15z"/>
<path d="M5091 1353 c0 -11 3 -13 6 -5 2 6 10 9 15 6 7 -4 8 -2 4 4 -11 18
-26 14 -25 -5z"/>
<path d="M5015 1339 c-4 -6 -5 -12 -2 -15 2 -3 7 2 10 11 7 17 1 20 -8 4z"/>
<path d="M5073 1331 c0 -11 5 -18 9 -15 4 3 5 11 1 19 -7 21 -12 19 -10 -4z"/>
</g>
</svg>
